<svg width="20" height="20" viewBox="0 0 20 20" fill="none" xmlns="http://www.w3.org/2000/svg">
<path d="M16.6946 17.3953H3.28319C1.5333 17.3953 0.109863 15.9719 0.109863 14.222V5.75536C0.109863 4.00569 1.53352 2.58203 3.28319 2.58203H16.6946C18.4442 2.58203 19.8677 4.00569 19.8677 5.75536V14.222C19.8677 15.9719 18.4442 17.3953 16.6946 17.3953ZM3.28319 3.50999C2.04503 3.50999 1.03782 4.5172 1.03782 5.75536V14.222C1.03782 15.4602 2.04503 16.4676 3.28319 16.4676H16.6946C17.9327 16.4676 18.9399 15.4602 18.9399 14.222V5.75536C18.9399 4.5172 17.9327 3.50999 16.6946 3.50999H3.28319Z" fill="black"/>
<path d="M2.53447 5.79946C4.90629 8.11068 7.2781 10.4217 9.64992 12.7329C10.0921 13.1636 10.7706 12.4866 10.3278 12.055C7.95601 9.744 5.5842 7.43277 3.21238 5.12177C2.77025 4.69083 2.09168 5.36808 2.53447 5.79946Z" fill="black"/>
<path d="M10.3278 12.7329C12.6996 10.4219 15.0714 8.11072 17.4432 5.79971C17.8858 5.36833 17.2077 4.69086 16.7653 5.1218C14.3935 7.43281 12.0217 9.74403 9.64989 12.055C9.20731 12.4864 9.88544 13.1639 10.3278 12.7329Z" fill="black"/>
<path d="M17.4171 14.3689C15.8389 12.8721 14.2605 11.3756 12.6823 9.87884C12.2347 9.45449 11.5556 10.1311 12.0044 10.5568C13.5826 12.0535 15.161 13.5501 16.7392 15.0468C17.1868 15.4712 17.8658 14.7944 17.4171 14.3689Z" fill="black"/>
<path d="M3.28109 15.0466C4.8593 13.5498 6.43773 12.0533 8.01594 10.5565C8.46444 10.1311 7.78587 9.45402 7.33803 9.8786C5.75982 11.3754 4.18139 12.8719 2.60318 14.3687C2.15468 14.7941 2.83325 15.4714 3.28109 15.0466Z" fill="black"/>
</svg>
