<svg width="107" height="81" viewBox="0 0 107 81" fill="none" xmlns="http://www.w3.org/2000/svg">
<g id="&#208;&#146;&#209;&#129;&#208;&#181; &#208;&#160;&#208;&#181;&#209;&#136;&#208;&#181;&#208;&#189;&#208;&#184;&#209;&#143; &#208;&#187;&#208;&#190;&#208;&#179;&#208;&#190; &#208;&#178;&#208;&#181;&#208;&#186;&#209;&#130;&#208;&#190;&#209;&#128; 1" clip-path="url(#clip0_117_169)">
<g id="Group">
<g id="Group_2">
<path id="Vector" fill-rule="evenodd" clip-rule="evenodd" d="M0.440674 80.1256V70.8051H7.30578C8.2948 70.8051 9.01552 71.0029 9.46792 71.3985C9.92032 71.7941 10.1465 72.2715 10.1465 72.8306V73.3053C10.1465 73.7379 10.0545 74.0939 9.87034 74.3735C9.68622 74.653 9.48894 74.8508 9.27851 74.9669C9.74144 75.1146 10.1097 75.3704 10.3832 75.7344C10.6568 76.0983 10.7936 76.5757 10.7936 77.1665V77.4513C10.7936 77.7678 10.7568 78.0843 10.6831 78.4008C10.6095 78.7173 10.4701 79.0047 10.2649 79.2632C10.0597 79.5217 9.77038 79.73 9.39688 79.8883C9.02338 80.0465 8.53677 80.1256 7.93704 80.1256H0.440674ZM2.52391 74.5396H6.97436C7.3426 74.5502 7.61616 74.4579 7.79502 74.2627C7.97388 74.0676 8.06332 73.8223 8.06332 73.5269V73.3687C8.06332 73.126 7.97914 72.8913 7.81079 72.6645C7.64245 72.4376 7.32681 72.3242 6.86389 72.3242H2.52391V74.5396ZM2.52391 78.6065H7.49518C7.89497 78.6065 8.19745 78.5062 8.40262 78.3058C8.6078 78.1054 8.71038 77.8311 8.71038 77.483V77.1981C8.71038 76.8711 8.58938 76.6047 8.34739 76.399C8.10539 76.1933 7.70559 76.0904 7.14796 76.0904H2.52391V78.6065Z" fill="#7F7F7F" stroke="#7F7F7F" stroke-width="0.377953" stroke-linecap="round" stroke-linejoin="round"/>
</g>
<g id="Group_3">
<path id="Vector_2" fill-rule="evenodd" clip-rule="evenodd" d="M14.6113 80.1256C14.0852 80.1256 13.6802 80.057 13.3961 79.9199C13.112 79.7827 12.9095 79.6087 12.7885 79.3977C12.6675 79.1867 12.5939 78.9651 12.5675 78.7331C12.5412 78.501 12.5281 78.29 12.5281 78.1002L12.5281 75.0619C12.5281 74.9036 12.5412 74.7111 12.5675 74.4843C12.5938 74.2575 12.6675 74.0333 12.7885 73.8118C12.9095 73.5902 13.1146 73.4056 13.404 73.2579C13.6933 73.1102 14.0958 73.0363 14.6113 73.0363H16.805C18.1201 73.0363 19.0539 73.0706 19.6062 73.1392C20.1586 73.2078 20.4348 73.279 20.4348 73.3528L20.1191 74.5554C19.8246 74.5344 19.4511 74.5107 18.9987 74.4842C18.5463 74.4579 18.0597 74.4368 17.5388 74.421C17.018 74.4052 16.5104 74.3972 16.0159 74.3972H15.211C14.706 74.3972 14.4535 74.6082 14.4535 75.0302L14.4535 78.1318C14.443 78.5537 14.6955 78.7648 15.211 78.7648H16.0159C16.5841 78.7648 17.1391 78.7568 17.6809 78.741C18.2227 78.7251 18.7199 78.704 19.1723 78.6777C19.6247 78.6513 19.9877 78.6276 20.2612 78.6065L20.8925 79.6351C20.8925 79.9621 19.8562 80.1256 17.7834 80.1256H14.6113Z" fill="#7F7F7F" stroke="#7F7F7F" stroke-width="0.377953" stroke-linecap="round" stroke-linejoin="round"/>
</g>
<g id="Group_4">
<path id="Vector_3" fill-rule="evenodd" clip-rule="evenodd" d="M23.924 80.1256C23.398 80.1256 22.9929 80.057 22.7089 79.9199C22.4248 79.7827 22.2222 79.6087 22.1012 79.3977C21.9802 79.1867 21.9066 78.9651 21.8803 78.7331C21.854 78.501 21.8408 78.29 21.8408 78.1001V75.0619C21.8408 74.9036 21.854 74.7111 21.8803 74.4843C21.9066 74.2575 21.9802 74.0333 22.1012 73.8118C22.2222 73.5902 22.4274 73.4056 22.7167 73.2579C23.0061 73.1102 23.4085 73.0363 23.924 73.0363H27.3171C28.0116 73.0363 28.556 73.1023 28.9506 73.2341C29.3451 73.366 29.6239 73.5796 29.787 73.875C29.9501 74.1704 30.0316 74.566 30.0316 75.0619L30.0316 77.4038H27.2698C26.3229 77.4038 25.5522 77.3827 24.9578 77.3405C24.3633 77.2983 23.9662 77.272 23.7662 77.2614V78.1318C23.7557 78.5537 24.0082 78.7648 24.5238 78.7648H25.3287C25.8968 78.7648 26.4518 78.7568 26.9936 78.741C27.5355 78.7251 28.0326 78.704 28.485 78.6777C28.9374 78.6513 29.3004 78.6276 29.574 78.6065L30.2053 79.6351C30.2053 79.9621 29.1689 80.1256 27.0962 80.1256H23.924ZM23.7662 76.043H28.1062V75.0302C28.1062 74.8192 28.0825 74.6715 28.0352 74.5871C27.9879 74.5027 27.8485 74.4499 27.617 74.4289C27.3856 74.4078 26.991 74.3972 26.4334 74.3972H24.5238C24.0188 74.3972 23.7663 74.6082 23.7662 75.0302V76.043Z" fill="#7F7F7F" stroke="#7F7F7F" stroke-width="0.377953" stroke-linecap="round" stroke-linejoin="round"/>
</g>
<g id="Group_5">
<path id="Vector_4" fill-rule="evenodd" clip-rule="evenodd" d="M35.2231 80.1256V70.667H36.5172L36.9118 70.861C37.3852 70.8113 37.9508 70.7665 38.6083 70.7267C39.2659 70.6869 40.0156 70.667 40.8572 70.667H41.662C42.1882 70.667 42.5932 70.7317 42.8773 70.861C43.1613 70.9903 43.3639 71.1544 43.4849 71.3533C43.6059 71.5522 43.6795 71.7611 43.7059 71.9799C43.7321 72.1987 43.7453 72.3976 43.7453 72.5767V75.4411C43.7453 75.5903 43.7321 75.7718 43.7059 75.9857C43.6795 76.1995 43.6059 76.4108 43.4849 76.6197C43.3639 76.8285 43.1613 77.0026 42.8773 77.1418C42.5932 77.2811 42.1882 77.3507 41.662 77.3507H40.8572C40.0576 77.3507 39.3474 77.3308 38.7267 77.291C38.1059 77.2512 37.5799 77.2115 37.1485 77.1716V80.1256H35.2231ZM37.6378 76.0677H41.0624C41.2623 76.0677 41.4385 76.018 41.5911 75.9185C41.7436 75.8191 41.8199 75.6699 41.8199 75.4709V72.5469C41.8304 72.328 41.7752 72.1738 41.6542 72.0843C41.5332 71.9948 41.336 71.9501 41.0624 71.9501H40.2733C39.5999 71.9501 39.0029 71.9625 38.4821 71.9874C37.9613 72.0123 37.5167 72.0396 37.1485 72.0694V75.6052C37.1485 75.824 37.1722 75.9558 37.2195 76.0005C37.2669 76.0453 37.4063 76.0677 37.6378 76.0677Z" fill="#7F7F7F" stroke="#7F7F7F" stroke-width="0.377953" stroke-linecap="round" stroke-linejoin="round"/>
</g>
<g id="Group_6">
<path id="Vector_5" fill-rule="evenodd" clip-rule="evenodd" d="M47.2827 80.1256C46.7567 80.1256 46.3516 80.057 46.0675 79.9199C45.7834 79.7827 45.5809 79.6087 45.4599 79.3977C45.3389 79.1867 45.2652 78.9651 45.2389 78.7331C45.2126 78.501 45.1995 78.29 45.1995 78.1001V75.0619C45.1995 74.9036 45.2126 74.7111 45.2389 74.4843C45.2653 74.2575 45.3389 74.0333 45.4599 73.8118C45.5809 73.5902 45.786 73.4056 46.0754 73.2579C46.3647 73.1102 46.7672 73.0363 47.2827 73.0363H50.6758C51.3702 73.0363 51.9147 73.1023 52.3092 73.2341C52.7037 73.366 52.9825 73.5796 53.1457 73.875C53.3087 74.1704 53.3903 74.566 53.3903 75.0619V77.4038H50.6285C49.6816 77.4038 48.9109 77.3827 48.3164 77.3405C47.722 77.2983 47.3248 77.272 47.1249 77.2614V78.1318C47.1144 78.5537 47.3669 78.7648 47.8824 78.7648H48.6873C49.2554 78.7648 49.8104 78.7568 50.3523 78.741C50.8942 78.7251 51.3913 78.704 51.8437 78.6777C52.2961 78.6513 52.6591 78.6276 52.9326 78.6065L53.5639 79.6351C53.5639 79.9621 52.5276 80.1256 50.4548 80.1256H47.2827ZM47.1249 76.043H51.4649V75.0302C51.4649 74.8192 51.4412 74.6715 51.3939 74.5871C51.3465 74.5027 51.2072 74.4499 50.9757 74.4289C50.7442 74.4078 50.3496 74.3972 49.792 74.3972H47.8824C47.3774 74.3972 47.1249 74.6082 47.1249 75.0302V76.043Z" fill="#7F7F7F" stroke="#7F7F7F" stroke-width="0.377953" stroke-linecap="round" stroke-linejoin="round"/>
</g>
<g id="Group_7">
<path id="Vector_6" fill-rule="evenodd" clip-rule="evenodd" d="M79.5061 80.1256V73.0759H81.0845V76.0013H85.7716V73.0759H87.3499V80.1256H85.7716V77.1522H81.0845V80.1256H79.5061Z" fill="#7F7F7F" stroke="#7F7F7F" stroke-width="0.377953" stroke-linecap="round" stroke-linejoin="round"/>
</g>
<g id="Group_8">
<path id="Vector_7" fill-rule="evenodd" clip-rule="evenodd" d="M104.255 80.0461C104.415 80.0461 105.217 80.0461 105.858 80.0461V73.9941C105.858 73.9746 105.867 73.9168 105.979 73.0291H100.6C97.4717 73.0291 97.652 77.1134 100.333 77.3775C99.4144 78.2938 98.8115 79.1091 98.1633 78.9245C98.1876 79.021 98.1286 79.668 98.25 80.1505C99.6595 80.2597 99.6242 79.936 100.819 78.7117C101.848 77.657 102.341 77.3894 104.255 77.3894C104.255 78.4521 104.255 79.2491 104.255 80.0461ZM104.255 74.1727C104.255 74.38 104.255 75.8311 104.255 76.2457C100.559 76.4602 100.256 76.1414 100.076 75.7603C99.9058 75.4008 99.7496 74.1727 100.94 74.1727H104.255Z" fill="#7F7F7F" stroke="#7F7F7F" stroke-width="0.377953" stroke-linecap="round" stroke-linejoin="round"/>
</g>
<g id="Group_9">
<path id="Vector_8" fill-rule="evenodd" clip-rule="evenodd" d="M96.8017 80.1652V74.0255L96.9249 73.0586H95.151L90.9625 77.3613L90.482 78.0139H90.3466V73.0586H88.7205V80.1652H90.285L94.572 75.7901L95.0524 75.222H95.1756V80.1652H96.8017Z" fill="#7F7F7F" stroke="#7F7F7F" stroke-width="0.377953" stroke-linecap="round" stroke-linejoin="round"/>
</g>
<g id="Group_10">
<path id="Vector_9" fill-rule="evenodd" clip-rule="evenodd" d="M58.6286 78.8477H60.1933C60.401 78.8477 60.5349 78.829 60.595 78.7915C60.6251 78.7728 60.6477 78.7387 60.6627 78.6892L60.6778 78.6126V73.0386H60.6853H62.6781H62.6855V78.3899L62.6853 78.3799C62.6853 78.38 62.6839 78.3792 62.6839 78.379L62.682 78.38C62.7055 79.888 62.7046 79.9107 62.7049 79.9107L62.7116 80.2278H58.5737V80.2255H57.9419H57.1221C56.5755 80.2255 56.1546 80.1506 55.8595 80.0008C55.5644 79.851 55.354 79.6638 55.2283 79.4391C55.1026 79.2145 55.026 78.9871 54.9988 78.7571C54.9714 78.5271 54.9578 78.3319 54.9578 78.1714V73.0363H56.9581V78.2035C56.9581 78.6314 57.2204 78.8454 57.7451 78.8454H58.6286V78.8477Z" fill="#7F7F7F" stroke="#7F7F7F" stroke-width="0.377953" stroke-linecap="round" stroke-linejoin="round"/>
</g>
<g id="Group_11">
<path id="Vector_10" fill-rule="evenodd" clip-rule="evenodd" d="M71.9917 80.1256C71.4656 80.1256 71.0605 80.057 70.7765 79.9199C70.4924 79.7827 70.2899 79.6087 70.1688 79.3977C70.0479 79.1867 69.9742 78.9651 69.9479 78.7331C69.9216 78.501 69.9084 78.29 69.9084 78.1001V75.0619C69.9084 74.9036 69.9216 74.7111 69.9479 74.4843C69.9742 74.2575 70.0479 74.0333 70.1688 73.8118C70.2899 73.5902 70.495 73.4056 70.7843 73.2579C71.0737 73.1102 71.4761 73.0363 71.9917 73.0363H75.3848C76.0792 73.0363 76.6237 73.1023 77.0182 73.2341C77.4127 73.366 77.6915 73.5796 77.8546 73.875C78.0177 74.1704 78.0993 74.566 78.0993 75.0619V77.4038H75.3374C74.3905 77.4038 73.6198 77.3827 73.0254 77.3405C72.4309 77.2983 72.0338 77.272 71.8338 77.2614V78.1318C71.8233 78.5537 72.0759 78.7648 72.5914 78.7648H73.3963C73.9644 78.7648 74.5194 78.7568 75.0613 78.741C75.6031 78.7251 76.1003 78.704 76.5526 78.6777C77.0051 78.6513 77.3681 78.6276 77.6416 78.6065L78.2729 79.6351C78.2729 79.9621 77.2365 80.1256 75.1638 80.1256H71.9917ZM71.8338 76.043H76.1738V75.0302C76.1738 74.8192 76.1502 74.6715 76.1028 74.5871C76.0555 74.5027 75.9161 74.4499 75.6847 74.4289C75.4532 74.4078 75.0586 74.3972 74.501 74.3972H72.5914C72.0864 74.3972 71.8339 74.6082 71.8338 75.0302V76.043Z" fill="#7F7F7F" stroke="#7F7F7F" stroke-width="0.377953" stroke-linecap="round" stroke-linejoin="round"/>
</g>
<g id="Group_12">
<path id="Vector_11" fill-rule="evenodd" clip-rule="evenodd" d="M64.7339 78.8488H63.1692C62.9615 78.8488 62.8276 78.8301 62.7675 78.7926C62.7375 78.7739 62.7149 78.7398 62.6999 78.6903L62.6848 78.6137V73.0397H62.6773H60.6844H60.677V78.3909L60.6772 78.381C60.6772 78.381 60.6786 78.3803 60.6786 78.3801L60.6805 78.381C60.657 79.889 60.6579 79.9118 60.6576 79.9118L60.6509 80.2289H64.7888V80.2266H65.4207H66.2405C66.787 80.2266 67.2079 80.1517 67.503 80.0019C67.7981 79.8521 68.0085 79.6649 68.1342 79.4402C68.26 79.2156 68.3365 78.9882 68.3638 78.7582C68.3911 78.5282 68.4048 78.333 68.4048 78.1725V73.0374H66.4045V78.2046C66.4045 78.6325 66.1421 78.8465 65.6175 78.8465H64.7339L64.7339 78.8488Z" fill="#7F7F7F" stroke="#7F7F7F" stroke-width="0.377953" stroke-linecap="round" stroke-linejoin="round"/>
</g>
</g>
<g id="Group_13">
<path id="Vector_12" fill-rule="evenodd" clip-rule="evenodd" d="M0.33792 68.1462L0.329346 66.429L105.656 66.597L105.599 68.3492L0.33792 68.1462Z" fill="#7F7F7F"/>
</g>
<g id="Group_14">
<g id="Group_15">
<path id="Vector_13" fill-rule="evenodd" clip-rule="evenodd" d="M50.7881 60.5861L42.9589 55.0625L42.8003 0.620422L50.8528 6.4868L50.7881 60.5861Z" fill="#2482B9"/>
</g>
<g id="Group_16">
<path id="Vector_14" fill-rule="evenodd" clip-rule="evenodd" d="M55.9228 55.1104L55.7446 35.7944L63.4237 30.4208L63.4097 60.8663L55.9228 55.1104Z" fill="#7F7F7F"/>
</g>
<g id="Group_17">
<path id="Vector_15" fill-rule="evenodd" clip-rule="evenodd" d="M67.8262 49.302L67.9348 40.5396L94.5038 60.4662L83.5759 60.6154L67.8262 49.302Z" fill="#F2693D"/>
</g>
<g id="Group_18">
<path id="Vector_16" fill-rule="evenodd" clip-rule="evenodd" d="M38.4821 49.302L38.3734 40.5396L11.8044 60.4662L22.7324 60.6154L38.4821 49.302Z" fill="#2482B9"/>
</g>
</g>
</g>
<defs>
<clipPath id="clip0_117_169">
<rect width="107" height="81" fill="white"/>
</clipPath>
</defs>
</svg>
