<svg width="71" height="20" viewBox="0 0 71 20" fill="none" xmlns="http://www.w3.org/2000/svg">
<g clip-path="url(#clip0_202_1094)">
<path d="M19.0218 0.00439491V0.013128C19.013 0.013128 16.2636 0.00439453 15.5305 2.63283C14.8584 5.04296 12.9644 11.6941 12.912 11.8775H12.3883C12.3883 11.8775 10.4506 5.07789 9.76982 2.6241C9.03664 -0.00433858 6.27852 0.00439491 6.27852 0.00439491H0V19.9957H6.28143V8.12248H6.80512L10.471 19.9956H14.8322L18.4981 8.13122H19.0218V19.9956H25.3032V0.00439491H19.0218ZM41.9683 0.00439491C41.9683 0.00439491 40.1267 0.170308 39.2626 2.10025L34.8141 11.8775H34.2904V0.00439491H28.0089V19.9957H33.9412C33.9412 19.9957 35.8702 19.821 36.7344 17.8999L41.0956 8.12257H41.6193V19.9957H47.9007V0.00439491H41.9683ZM50.6936 9.08313V19.9957H56.9751V13.624H63.7803C66.7479 13.624 69.2587 11.729 70.1926 9.08604H50.6936V9.08313Z" fill="#4DB45E"/>
<path d="M63.7831 0.0043335H49.8121C50.5104 3.81164 53.3644 6.86505 57.0536 7.86054C57.91 8.09262 58.7935 8.2101 59.6808 8.20993H70.4485C70.5445 7.75584 70.5882 7.29303 70.5882 6.81275C70.5883 3.05193 67.5421 0.0043335 63.7831 0.0043335Z" fill="url(#paint0_linear_202_1094)"/>
</g>
<defs>
<linearGradient id="paint0_linear_202_1094" x1="49.8121" y1="4.10711" x2="70.5882" y2="4.10711" gradientUnits="userSpaceOnUse">
<stop offset="0.3" stop-color="#00B4E6"/>
<stop offset="1" stop-color="#088CCB"/>
</linearGradient>
<clipPath id="clip0_202_1094">
<rect width="70.5882" height="20" fill="white"/>
</clipPath>
</defs>
</svg>
