<svg width="18" height="18" viewBox="0 0 18 18" fill="none" xmlns="http://www.w3.org/2000/svg">
<path d="M4.6001 0.596069C2.39556 0.596069 0.600098 2.39154 0.600098 4.59607V13.3961C0.600098 15.6006 2.39556 17.3961 4.6001 17.3961H13.4001C15.6046 17.3961 17.4001 15.6006 17.4001 13.3961V4.59607C17.4001 2.39154 15.6046 0.596069 13.4001 0.596069H4.6001ZM4.6001 1.39607H13.4001C15.1724 1.39607 16.6001 2.8238 16.6001 4.59607V13.3961C16.6001 15.1683 15.1724 16.5961 13.4001 16.5961H4.6001C2.82783 16.5961 1.4001 15.1683 1.4001 13.3961V4.59607C1.4001 2.8238 2.82783 1.39607 4.6001 1.39607ZM6.21963 3.41404C5.4015 3.37869 4.78055 3.68954 4.38994 4.06326C4.19464 4.25011 4.05363 4.45005 3.95713 4.63669C3.86063 4.82334 3.79932 4.97722 3.79932 5.17732C3.79932 5.15949 3.79492 5.25305 3.79228 5.36169C3.78964 5.47034 3.79013 5.61679 3.8001 5.79373C3.82008 6.14759 3.88006 6.62625 4.03916 7.19373C4.35737 8.32868 5.07388 9.8175 6.62822 11.3719C8.18257 12.9262 9.6713 13.6426 10.8063 13.9609C11.3739 14.1201 11.8524 14.1799 12.2063 14.2C12.3833 14.21 12.5289 14.2104 12.6376 14.2078C12.7463 14.2051 12.8405 14.2008 12.8228 14.2008C13.0229 14.2008 13.1767 14.1394 13.3634 14.0429C13.55 13.9464 13.75 13.8054 13.9368 13.6101C14.3105 13.2195 14.6214 12.5986 14.586 11.7804C14.5693 11.3903 14.3526 11.0447 14.0329 10.8398C13.7858 10.6815 13.4023 10.4357 12.9017 10.1156C12.3208 9.74449 11.5779 9.71799 10.972 10.05L11.0063 10.0328L10.5353 10.2351L10.5009 10.2593C10.3864 10.3397 10.2446 10.3546 10.1157 10.3008C9.75482 10.1498 9.19249 9.85331 8.66963 9.33044C8.14677 8.80758 7.85024 8.24525 7.69932 7.88435C7.64543 7.75551 7.66032 7.6137 7.74072 7.49919L7.76494 7.46482L7.96728 6.99373L7.9501 7.0281C8.282 6.42232 8.2562 5.67942 7.88447 5.09841C7.56433 4.59779 7.31857 4.21424 7.16025 3.96716C6.95535 3.64745 6.60982 3.43081 6.21963 3.41404ZM6.18525 4.21326C6.29746 4.21808 6.41332 4.28373 6.48682 4.39841C6.6453 4.64574 6.89118 5.02948 7.21103 5.52966C7.42331 5.86145 7.43823 6.2975 7.24853 6.64373L7.23916 6.66091L7.04619 7.11169L7.08603 7.03904C6.84963 7.37573 6.80212 7.81298 6.96103 8.19294C7.14131 8.62404 7.48607 9.27813 8.104 9.89607C8.72194 10.514 9.37603 10.8588 9.80713 11.039C10.1871 11.198 10.6243 11.1504 10.961 10.914L10.8884 10.9539L11.3392 10.7609L11.3563 10.7515C11.7024 10.5619 12.1384 10.5777 12.4704 10.7898V10.789C12.9706 11.1089 13.3543 11.3548 13.6017 11.5133C13.7163 11.5868 13.782 11.7026 13.7868 11.8148C13.8131 12.4223 13.6021 12.8026 13.3587 13.057C13.237 13.1842 13.105 13.2765 12.9962 13.3328C12.8874 13.3891 12.7833 13.4008 12.8228 13.4008C12.7494 13.4008 12.7108 13.4056 12.6188 13.4078C12.5269 13.41 12.4038 13.4101 12.2517 13.4015C11.9475 13.3843 11.5276 13.3324 11.022 13.1906C10.0107 12.907 8.6551 12.2675 7.19385 10.8062C5.73259 9.34497 5.09297 7.98924 4.80947 6.9781C4.66773 6.47253 4.61571 6.05256 4.59853 5.74841C4.58995 5.59634 4.59006 5.47312 4.59228 5.38123C4.59452 5.28933 4.59932 5.25074 4.59932 5.17732C4.59932 5.21682 4.61101 5.11272 4.66728 5.00388C4.72356 4.89504 4.81587 4.76308 4.94307 4.64138C5.19746 4.39799 5.57778 4.18701 6.18525 4.21326Z" fill="black"/>
</svg>
