<svg width="20" height="20" viewBox="0 0 20 20" fill="none" xmlns="http://www.w3.org/2000/svg">
<path d="M10 2.10938C5.65625 2.10938 2.10938 5.65625 2.10938 10C2.10938 14.3438 5.65625 17.8906 10 17.8906C14.3438 17.8906 17.8906 14.3438 17.8906 10C17.8906 5.65625 14.3438 2.10938 10 2.10938ZM10 3.04688C13.8281 3.04688 16.9531 6.17188 16.9531 10C16.9531 13.8281 13.8281 16.9531 10 16.9531C6.17188 16.9531 3.04688 13.8281 3.04688 10C3.04688 6.17188 6.17188 3.04688 10 3.04688ZM10 4.84375C9.73438 4.84375 9.53125 5.04688 9.53125 5.3125V9.18762C9.25 9.34387 9.0625 9.65625 9.0625 10C9.0625 10.5156 9.48438 10.9375 10 10.9375C10.3438 10.9375 10.6561 10.75 10.8124 10.4688H13.125C13.3906 10.4688 13.5938 10.2656 13.5938 10C13.5938 9.73438 13.3906 9.53125 13.125 9.53125H10.8124C10.7343 9.39062 10.6094 9.26575 10.4688 9.18762V5.3125C10.4688 5.04688 10.2656 4.84375 10 4.84375Z" fill="black"/>
</svg>
