<svg width="40" height="40" viewBox="0 0 40 40" fill="none" xmlns="http://www.w3.org/2000/svg">
<g clip-path="url(#clip0_202_1075)">
<path d="M1.24316 38.9245L3.88434 29.2824C2.25493 26.4608 1.39807 23.2588 1.39905 19.9794C1.40395 9.71962 9.75297 1.37256 20.0137 1.37256C24.9932 1.37452 29.6657 3.31276 33.1804 6.82942C36.6941 10.3471 38.6294 15.0216 38.6275 19.9941C38.6235 30.2539 30.2726 38.602 20.0137 38.602H20.0059C16.8912 38.601 13.8294 37.8196 11.1108 36.3363L1.24316 38.9245Z" fill="white"/>
<path d="M1.24319 39.4147C1.11377 39.4147 0.988284 39.3637 0.895146 39.2696C0.772597 39.1451 0.724558 38.9637 0.770637 38.7961L3.35789 29.349C1.75397 26.5 0.907891 23.2647 0.909852 19.9804C0.913774 9.44899 9.48338 0.882324 20.0138 0.882324C25.1216 0.884285 29.9206 2.8735 33.5275 6.48331C37.1344 10.0941 39.1196 14.8921 39.1177 19.9941C39.1138 30.5245 30.5432 39.0921 20.0138 39.0921C16.8873 39.0912 13.7942 38.3196 11.0491 36.8598L1.3677 39.398C1.32652 39.4098 1.28534 39.4147 1.24319 39.4147Z" fill="white"/>
<path d="M20.0138 1.3726C24.9932 1.37456 29.6658 3.3128 33.1805 6.82946C36.6942 10.3471 38.6295 15.0216 38.6276 19.9942C38.6236 30.254 30.2727 38.602 20.0138 38.602H20.006C16.8913 38.601 13.8295 37.8196 11.1109 36.3363L1.24325 38.9245L3.88442 29.2824C2.25501 26.4608 1.39815 23.2589 1.39913 19.9795C1.40403 9.71966 9.75305 1.3726 20.0138 1.3726ZM20.0138 0.392212C9.21383 0.392212 0.423639 9.17848 0.418737 19.9795C0.417756 23.2804 1.25109 26.5334 2.83148 29.4128L0.297168 38.6667C0.205011 39.0049 0.299129 39.3657 0.546188 39.6147C0.732462 39.803 0.984423 39.9059 1.24325 39.9059C1.32658 39.9059 1.40991 39.8951 1.49227 39.8736L10.9893 37.3834C13.7619 38.8226 16.8697 39.5824 20.006 39.5834C30.8138 39.5834 39.604 30.7961 39.6089 19.9951C39.6109 14.7608 37.5746 9.83927 33.8756 6.13731C30.1746 2.43437 25.2521 0.394173 20.0138 0.392212Z" fill="#CFD8DC"/>
<path d="M30.957 9.05104C28.0354 6.12751 24.1521 4.51673 20.0187 4.51575C11.4854 4.51575 4.54518 11.453 4.54126 19.9805C4.54028 22.903 5.35793 25.7481 6.90695 28.2118L7.27558 28.7971L5.71185 34.504L11.5677 32.9687L12.1334 33.304C14.5079 34.7138 17.2315 35.4589 20.0079 35.4599H20.0138C28.5413 35.4599 35.4815 28.5216 35.4844 19.9932C35.4854 15.8608 33.8785 11.9746 30.957 9.05104Z" fill="#40C351"/>
<path fill-rule="evenodd" clip-rule="evenodd" d="M15.3608 12.201C15.0128 11.4264 14.6461 11.4108 14.3138 11.397C14.0422 11.3853 13.7324 11.3863 13.4226 11.3863C13.1128 11.3863 12.6089 11.5029 12.1824 11.9686C11.7559 12.4343 10.554 13.5588 10.554 15.847C10.554 18.1353 12.2206 20.347 12.453 20.6568C12.6853 20.9666 15.6706 25.8127 20.3981 27.6774C24.3265 29.2264 25.1265 28.9186 25.9794 28.8411C26.8324 28.7637 28.7314 27.7166 29.1187 26.6304C29.5059 25.5441 29.5059 24.6137 29.3902 24.4196C29.2736 24.2255 28.9638 24.1098 28.499 23.8764C28.0343 23.6431 25.7471 22.5186 25.3206 22.3637C24.8941 22.2088 24.5843 22.1313 24.2736 22.597C23.9638 23.0617 23.0726 24.1098 22.801 24.4196C22.5294 24.7304 22.2579 24.7696 21.7932 24.5362C21.3285 24.3029 19.8304 23.8127 18.053 22.2284C16.6706 20.9961 15.7373 19.4735 15.4657 19.0078C15.1942 18.5431 15.4363 18.2912 15.6696 18.0588C15.8785 17.85 16.1343 17.5157 16.3677 17.2441C16.6 16.9725 16.6775 16.7784 16.8324 16.4686C16.9873 16.1578 16.9098 15.8862 16.7932 15.6539C16.6785 15.4206 15.7745 13.1206 15.3608 12.201Z" fill="white"/>
</g>
<defs>
<clipPath id="clip0_202_1075">
<rect width="40" height="40" fill="white"/>
</clipPath>
</defs>
</svg>
