<svg width="47" height="30" viewBox="0 0 47 30" fill="none" xmlns="http://www.w3.org/2000/svg">
<path d="M32 0C30.0302 -2.93527e-08 28.0796 0.387986 26.2597 1.14181C24.4399 1.89563 22.7863 3.00052 21.3934 4.3934C20.0005 5.78628 18.8956 7.43986 18.1418 9.25975C17.388 11.0796 17 13.0302 17 15C17 16.9698 17.388 18.9204 18.1418 20.7403C18.8956 22.5601 20.0005 24.2137 21.3934 25.6066C22.7863 26.9995 24.4399 28.1044 26.2597 28.8582C28.0796 29.612 30.0302 30 32 30C33.9698 30 35.9204 29.612 37.7402 28.8582C39.5601 28.1044 41.2137 26.9995 42.6066 25.6066C43.9995 24.2137 45.1044 22.5601 45.8582 20.7403C46.612 18.9204 47 16.9698 47 15C47 13.0302 46.612 11.0796 45.8582 9.25975C45.1044 7.43986 43.9995 5.78628 42.6066 4.3934C41.2137 3.00052 39.5601 1.89563 37.7402 1.14181C35.9204 0.387986 33.9698 -2.93527e-08 32 0Z" fill="#FF9800"/>
<path d="M15 0C13.0302 -2.93527e-08 11.0796 0.387986 9.25975 1.14181C7.43986 1.89563 5.78628 3.00052 4.3934 4.3934C3.00052 5.78628 1.89563 7.43986 1.14181 9.25975C0.387987 11.0796 0 13.0302 0 15C0 16.9698 0.387987 18.9204 1.14181 20.7403C1.89563 22.5601 3.00052 24.2137 4.3934 25.6066C5.78628 26.9995 7.43986 28.1044 9.25975 28.8582C11.0796 29.612 13.0302 30 15 30C16.9698 30 18.9204 29.612 20.7403 28.8582C22.5601 28.1044 24.2137 26.9995 25.6066 25.6066C26.9995 24.2137 28.1044 22.5601 28.8582 20.7403C29.612 18.9204 30 16.9698 30 15C30 13.0302 29.612 11.0796 28.8582 9.25975C28.1044 7.43986 26.9995 5.78628 25.6066 4.3934C24.2137 3.00052 22.5601 1.89563 20.7403 1.14181C18.9204 0.387986 16.9698 -2.93527e-08 15 0Z" fill="#D50000"/>
<path d="M17.1428 15C17.1428 20.0946 19.6885 24.5892 23.5714 27.2999C27.4543 24.5892 30 20.0946 30 15C30 9.90531 27.4543 5.41067 23.5714 2.69995C19.6885 5.41067 17.1428 9.90531 17.1428 15Z" fill="#FF3D00"/>
</svg>
