<svg width="62" height="20" viewBox="0 0 62 20" fill="none" xmlns="http://www.w3.org/2000/svg">
<path d="M26.7251 19.6666H21.6947L24.8386 0.345246H29.8695L26.7251 19.6666ZM17.4629 0.345246L12.6671 13.6346L12.0996 10.7729L12.1002 10.774L10.4075 2.08492C10.4075 2.08492 10.2029 0.345246 8.02129 0.345246H0.0930306L0 0.672403C0 0.672403 2.42448 1.17683 5.26191 2.88084L9.63227 19.6672H14.8735L22.8767 0.345246H17.4629ZM57.0292 19.6666H61.6482L57.621 0.344729H53.5773C51.71 0.344729 51.2551 1.78463 51.2551 1.78463L43.7527 19.6666H48.9966L50.0452 16.7966H56.44L57.0292 19.6666ZM51.4939 12.832L54.137 5.60147L55.624 12.832H51.4939ZM44.1461 4.9916L44.8639 0.842441C44.8639 0.842441 42.6488 0 40.3396 0C37.8432 0 31.9151 1.09104 31.9151 6.39636C31.9151 11.388 38.8728 11.45 38.8728 14.0719C38.8728 16.6938 32.632 16.224 30.5724 14.5706L29.8245 18.909C29.8245 18.909 32.0707 20 35.5025 20C38.9353 20 44.114 18.2226 44.114 13.385C44.114 8.36137 37.0938 7.89364 37.0938 5.70949C37.0943 3.52482 41.9934 3.80546 44.1461 4.9916Z" fill="#2566AF"/>
<path d="M12.1002 10.7732L10.4075 2.08415C10.4075 2.08415 10.2029 0.344482 8.02129 0.344482H0.0930306L0 0.671639C0 0.671639 3.81063 1.46136 7.46569 4.42025C10.9605 7.24838 12.1002 10.7732 12.1002 10.7732Z" fill="#E6A540"/>
</svg>
